<svg width="725" height="297" viewBox="0 0 725 297" fill="none" xmlns="http://www.w3.org/2000/svg">
<rect x="40" y="103" width="645" height="194" fill="#C4C4C4" fill-opacity="0.57"/>
<rect x="100" y="55" width="63" height="48" fill="#C4C4C4"/>
<rect x="568" y="55" width="63" height="48" fill="#C4C4C4"/>
<ellipse cx="131.5" cy="79" rx="19.5" ry="20" fill="white"/>
<ellipse cx="131.5" cy="79" rx="13.5" ry="14" fill="#DAF6FF"/>
<ellipse cx="599.5" cy="79" rx="19.5" ry="20" fill="white"/>
<ellipse cx="599.5" cy="79" rx="13.5" ry="14" fill="#DAF6FF"/>
<rect x="291" y="111" width="144" height="16" rx="8" fill="#EFEFEF"/>
<rect x="13" y="141" width="27" height="119" fill="#C4C4C4"/>
<rect x="685" y="141" width="27" height="119" fill="#C4C4C4"/>
<rect y="169" width="13" height="62" fill="#E4A1A1"/>
<rect x="712" y="169" width="13" height="62" fill="#E4A1A1"/>
<rect width="6" height="78" transform="matrix(-1 0 0 1 366 26)" fill="#C4C4C4"/>
<path d="M377 14C377 21.732 370.732 28 363 28C355.268 28 349 21.732 349 14C349 6.26801 355.268 0 363 0C370.732 0 377 6.26801 377 14Z" fill="#CEEBF4"/>
<path d="M369 11C369 15.9706 364.971 20 360 20C355.029 20 351 15.9706 351 11C351 6.02944 355.029 2 360 2C364.971 2 369 6.02944 369 11Z" fill="#DAF6FF"/>
</svg>
